HIERARCHY
ROOT Hips
{
  OFFSET -69.4423 88.0299 51.6846
  CHANNELS 6 Xposition Yposition Zposition Zrotation Xrotation Yrotation
  JOINT Spine
  {
    OFFSET 12.0259 -0.162853 1.93176e-005
    CHANNELS 3 Zrotation Xrotation Yrotation
    JOINT Spine1
    {
      OFFSET 15.3169 -0.0121909 0
      CHANNELS 3 Zrotation Xrotation Yrotation
      JOINT Spine2
      {
        OFFSET 15.3176 -0.0121922 0
        CHANNELS 3 Zrotation Xrotation Yrotation
        JOINT Neck
        {
          OFFSET 19.9142 1.56236 0
          CHANNELS 3 Zrotation Xrotation Yrotation
          JOINT Head
          {
            OFFSET 6.92646 0 0
            CHANNELS 3 Zrotation Xrotation Yrotation
            End Site
            {
              OFFSET 20.7666 0 0
            }
          }
          JOINT LeftShoulder
          {
            OFFSET -4.94072 -1.14703 8.14416
            CHANNELS 3 Zrotation Xrotation Yrotation
            JOINT LeftArm
            {
              OFFSET 14.108 0 -2.74767e-005
              CHANNELS 3 Zrotation Xrotation Yrotation
              JOINT LeftForeArm
              {
                OFFSET 28.5802 -0.0783412 -0.0284884
                CHANNELS 3 Zrotation Xrotation Yrotation
                JOINT LeftHand
                {
                  OFFSET 27.092 0 0
                  CHANNELS 3 Zrotation Xrotation Yrotation
                  End Site
                  {
                    OFFSET 9.55928 -0.186424 0.145352
                  }
                }
              }
            }
          }
          JOINT RightShoulder
          {
            OFFSET -7.15748 -1.33027 -6.24935
            CHANNELS 3 Zrotation Xrotation Yrotation
            JOINT RightArm
            {
              OFFSET 14.108 0 1.82997e-005
              CHANNELS 3 Zrotation Xrotation Yrotation
              JOINT RightForeArm
              {
                OFFSET 28.5802 -0.0707221 2.30684e-005
                CHANNELS 3 Zrotation Xrotation Yrotation
                JOINT RightHand
                {
                  OFFSET 27.092 0 -1.30073e-005
                  CHANNELS 3 Zrotation Xrotation Yrotation
                  End Site
                  {
                    OFFSET 9.55929 -0.186417 -0.145354
                  }
                }
              }
            }
          }
        }
      }
    }
  }
  JOINT LeftUpLeg
  {
    OFFSET 0.00499725 -0.534999 8.837
    CHANNELS 3 Zrotation Xrotation Yrotation
    JOINT LeftLeg
    {
      OFFSET 39.9035 -0.00124594 0.000252775
      CHANNELS 3 Zrotation Xrotation Yrotation
      JOINT LeftFoot
      {
        OFFSET 39.6689 0 0
        CHANNELS 3 Zrotation Xrotation Yrotation
        JOINT LeftToe
        {
          OFFSET 10.1624 13.6296 0
          CHANNELS 3 Zrotation Xrotation Yrotation
          End Site
          {
            OFFSET 8.38147 0 0
          }
        }
      }
    }
  }
  JOINT RightUpLeg
  {
    OFFSET 0.00499725 -0.535 -8.837
    CHANNELS 3 Zrotation Xrotation Yrotation
    JOINT RightLeg
    {
      OFFSET 39.9036 -0.000268477 0.000106433
      CHANNELS 3 Zrotation Xrotation Yrotation
      JOINT RightFoot
      {
        OFFSET 39.6689 1.17892e-005 0
        CHANNELS 3 Zrotation Xrotation Yrotation
        JOINT RightToe
        {
          OFFSET 10.1624 13.6296 0
          CHANNELS 3 Zrotation Xrotation Yrotation
          End Site
          {
            OFFSET 8.38147 0 0
          }
        }
      }
    }
  }
}
MOTION
Frames:	6
Frame Time:	0.0333333
-81.4066 88.72 86.1362 -96.745 62.1552 -172.756 0.749187 -0.297555 1.00097 1.50352 -0.581472 2.00594 1.5035 -0.581474 2.00593 -14.5368 2.43022 -8.93514 54.5499 2.72068 0.993075 -166.618 1.68262 -93.0809 -21.9548 3.77482 82.7868 -24.0443 2.62428 -15.3393 17.9787 -86.0426 20.323 -166.735 -0.294006 75.4293 -16.514 -13.7663 -81.2685 -22.7974 -2.73678 14.1343 7.4701 85.8765 -7.40567 -11.12 19.2312 -176.056 -28.8393 0.878403 -1.00822 5.79638 -20.8819 0.229364 90 -1.11319e-014 -6.36111e-015 -12.2468 -19.0674 178.971 -33.8464 -0.46405 0.378261 10.4837 29.4965 -2.30572 90 1.19271e-014 -3.18055e-015 
-80.9535 88.6508 85.3872 -96.319 56.5641 -173.572 0.64723 -0.196512 1.05444 1.29804 -0.380612 2.11127 1.29804 -0.380598 2.11126 -14.0562 2.04039 -9.76862 53.3501 3.09494 2.62292 -167.164 1.09109 -93.7839 -21.9068 3.9824 82.98 -24.0211 2.61301 -15.3382 17.8914 -86.3284 20.149 -167.281 -0.87022 74.7433 -16.9228 -14.011 -81.7573 -23.1136 -2.79755 14.2958 5.95903 85.1545 -5.92136 -10.8651 17.4994 -177.205 -26.1543 0.881578 -1.14249 4.71842 -20.9127 -0.171411 90 -3.18055e-015 -0 -13.0747 -20.015 178.427 -34.9598 -0.419549 0.346656 9.17783 31.3452 -1.83095 90 7.95139e-015 7.95139e-015 
-80.4276 88.6046 84.6098 -95.7633 50.9518 -174.438 0.620028 -0.150067 1.16011 1.24334 -0.286992 2.32196 1.24334 -0.287027 2.32194 -13.9931 1.99362 -9.42698 53.4147 2.72663 1.98869 -167.252 1.14167 -93.4785 -22.0389 4.04206 83.8185 -24.5036 2.70091 -15.6088 18.7564 -86.7155 21.0535 -167.337 -0.781518 75.0765 -18.4419 -14.1617 -81.7113 -23.5096 -2.88387 14.5163 6.73769 85.7957 -6.72512 -10.4514 14.8574 -178.233 -23.7235 0.876978 -1.27731 4.09848 -20.3863 -0.367651 90 3.97569e-015 3.18055e-015 -13.5994 -21.0331 177.922 -35.8818 -0.405945 0.358723 10.6235 33.4875 -2.90152 90 1.59028e-014 4.45278e-014 
-79.754 88.5867 83.9944 -94.5377 46.0195 -175.939 0.62808 -0.0198693 1.24227 1.25642 -0.0256066 2.48484 1.25644 -0.0256254 2.48484 -13.7797 1.99916 -9.00775 53.9337 2.76937 1.56289 -167.5 1.25353 -93.1064 -22.3619 5.01912 84.5207 -24.737 2.74367 -15.7081 24.8639 -87.2437 27.188 -167.537 -0.597164 75.4771 -18.7663 -13.9875 -81.7241 -23.839 -2.9621 14.7039 6.62299 85.7303 -6.61254 -9.68539 12.669 -178.517 -22.3593 0.872677 -1.30955 3.56238 -17.3914 -0.503043 90 -4.77083e-015 -0 -13.1936 -21.666 177.695 -36.6738 -0.405496 0.373066 12.6614 35.1109 -4.36736 90 -1.03368e-014 -1.11319e-014 
-78.9796 88.5011 83.1326 -93.7083 41.2727 -176.36 0.711569 0.0484135 1.19674 1.42199 0.112133 2.39294 1.42197 0.11214 2.39293 -13.8944 1.87448 -9.34305 53.9233 2.94752 2.09611 -167.419 0.979251 -93.4088 -22.35 5.50782 84.9719 -24.8855 2.76026 -15.7738 25.9971 -87.4836 28.2559 -167.428 -0.819103 75.1823 -18.2003 -12.9969 -81.3522 -24.4161 -3.10016 15.0145 6.26846 85.4355 -6.25417 -9.33859 11.3928 -179.236 -21.576 0.878237 -1.29628 2.65575 -12.9686 -0.572357 90 -1.27222e-014 -6.36111e-015 -13.4376 -21.3564 176.563 -38.3336 -0.428291 0.405409 17.4284 35.3557 -7.34109 90 -2.38542e-015 -7.95139e-015 
-78.1187 88.2011 82.2746 -92.8904 36.8035 -176.473 0.744743 0.177335 1.01894 1.48622 0.368361 2.03565 1.48621 0.368364 2.03564 -13.5701 1.55968 -9.32399 53.2293 3.04281 2.95666 -167.811 0.653728 -93.3323 -22.594 6.47541 84.9019 -24.9985 2.77154 -15.7946 31.164 -87.8986 33.4439 -167.787 -1.10508 75.3081 -17.5643 -12.2074 -81.6557 -25.2037 -3.29586 15.4456 7.62799 86.1185 -7.61331 -9.14327 10.9149 179.706 -21.571 0.891361 -1.23724 2.67677 -8.77046 -0.295047 90 -7.95139e-015 -3.18055e-015 -13.9943 -21.8123 174.661 -40.7934 -0.361119 0.316845 14.4482 35.5726 -5.53095 90 -1.35174e-014 -7.15625e-015 
